<svg width="18" height="22" viewBox="0 0 18 22" fill="none" xmlns="http://www.w3.org/2000/svg">
<path d="M8.75 18.75L3.5 21C2.66667 21.3542 1.875 21.2867 1.125 20.7975C0.375 20.3083 0 19.6154 0 18.7188V2.5C0 1.8125 0.245 1.22417 0.735 0.735C1.225 0.245833 1.81333 0.000833333 2.5 0H15C15.6875 0 16.2763 0.245 16.7663 0.735C17.2563 1.225 17.5008 1.81333 17.5 2.5V18.7188C17.5 19.6146 17.125 20.3075 16.375 20.7975C15.625 21.2875 14.8333 21.355 14 21L8.75 18.75ZM8.75 16L15 18.6875V2.5H2.5V18.6875L8.75 16ZM8.75 2.5H2.5H15H8.75Z" fill="black"/>
</svg>
